<svg xmlns="http://www.w3.org/2000/svg" viewBox="0 0 126 30.51"><defs><style>.cls-1{fill:#a14acb;}.cls-2{isolation:isolate;}</style></defs><g id="Layer_2" data-name="Layer 2"><g id="Layer_1-2" data-name="Layer 1"><g id="Group_5" data-name="Group 5"><rect id="Rectangle_59" data-name="Rectangle 59" class="cls-1" x="31.11" y="3.89" width="3.29" height="3.29"/><rect id="Rectangle_60" data-name="Rectangle 60" class="cls-1" x="31.11" y="7.78" width="3.29" height="3.29"/><rect id="Rectangle_61" data-name="Rectangle 61" class="cls-1" x="27.22" width="3.29" height="3.29"/><rect id="Rectangle_62" data-name="Rectangle 62" class="cls-1" x="27.22" y="3.89" width="3.29" height="3.29"/><rect id="Rectangle_63" data-name="Rectangle 63" class="cls-1" x="27.22" y="7.78" width="3.29" height="3.29"/><rect id="Rectangle_64" data-name="Rectangle 64" class="cls-1" x="27.22" y="11.67" width="3.29" height="3.29"/><rect id="Rectangle_65" data-name="Rectangle 65" class="cls-1" x="27.22" y="15.56" width="3.29" height="3.29"/><rect id="Rectangle_66" data-name="Rectangle 66" class="cls-1" x="23.33" width="3.29" height="3.29"/><rect id="Rectangle_67" data-name="Rectangle 67" class="cls-1" x="23.33" y="3.89" width="3.29" height="3.29"/><rect id="Rectangle_68" data-name="Rectangle 68" class="cls-1" x="23.33" y="7.78" width="3.29" height="3.29"/><rect id="Rectangle_69" data-name="Rectangle 69" class="cls-1" x="23.33" y="11.67" width="3.29" height="3.29"/><rect id="Rectangle_70" data-name="Rectangle 70" class="cls-1" x="23.33" y="15.56" width="3.29" height="3.29"/><rect id="Rectangle_71" data-name="Rectangle 71" class="cls-1" x="23.33" y="19.45" width="3.29" height="3.28"/><rect id="Rectangle_72" data-name="Rectangle 72" class="cls-1" x="19.45" y="3.89" width="3.29" height="3.29"/><rect id="Rectangle_73" data-name="Rectangle 73" class="cls-1" x="19.45" y="7.78" width="3.29" height="3.29"/><rect id="Rectangle_74" data-name="Rectangle 74" class="cls-1" x="19.45" y="11.67" width="3.29" height="3.29"/><rect id="Rectangle_75" data-name="Rectangle 75" class="cls-1" x="19.45" y="15.56" width="3.29" height="3.29"/><rect id="Rectangle_76" data-name="Rectangle 76" class="cls-1" x="19.45" y="19.45" width="3.29" height="3.28"/><rect id="Rectangle_77" data-name="Rectangle 77" class="cls-1" x="19.45" y="23.34" width="3.29" height="3.28"/><rect id="Rectangle_78" data-name="Rectangle 78" class="cls-1" x="15.56" y="7.78" width="3.29" height="3.29"/><rect id="Rectangle_79" data-name="Rectangle 79" class="cls-1" x="15.56" y="11.67" width="3.29" height="3.29"/><rect id="Rectangle_80" data-name="Rectangle 80" class="cls-1" x="15.56" y="15.56" width="3.29" height="3.29"/><rect id="Rectangle_81" data-name="Rectangle 81" class="cls-1" x="15.56" y="19.45" width="3.29" height="3.28"/><rect id="Rectangle_82" data-name="Rectangle 82" class="cls-1" x="15.56" y="23.33" width="3.29" height="3.29"/><rect id="Rectangle_83" data-name="Rectangle 83" class="cls-1" x="15.56" y="27.22" width="3.29" height="3.29"/><rect id="Rectangle_84" data-name="Rectangle 84" class="cls-1" x="11.67" y="3.89" width="3.29" height="3.29"/><rect id="Rectangle_85" data-name="Rectangle 85" class="cls-1" x="11.67" y="7.78" width="3.29" height="3.29"/><rect id="Rectangle_86" data-name="Rectangle 86" class="cls-1" x="11.67" y="11.67" width="3.29" height="3.29"/><rect id="Rectangle_87" data-name="Rectangle 87" class="cls-1" x="11.67" y="15.56" width="3.29" height="3.29"/><rect id="Rectangle_88" data-name="Rectangle 88" class="cls-1" x="11.67" y="19.45" width="3.29" height="3.28"/><rect id="Rectangle_89" data-name="Rectangle 89" class="cls-1" x="11.67" y="23.34" width="3.29" height="3.28"/><rect id="Rectangle_90" data-name="Rectangle 90" class="cls-1" x="7.78" width="3.29" height="3.29"/><rect id="Rectangle_91" data-name="Rectangle 91" class="cls-1" x="7.78" y="3.89" width="3.29" height="3.29"/><rect id="Rectangle_92" data-name="Rectangle 92" class="cls-1" x="7.78" y="7.78" width="3.29" height="3.29"/><rect id="Rectangle_93" data-name="Rectangle 93" class="cls-1" x="7.78" y="11.67" width="3.29" height="3.29"/><rect id="Rectangle_94" data-name="Rectangle 94" class="cls-1" x="7.78" y="15.56" width="3.29" height="3.29"/><rect id="Rectangle_95" data-name="Rectangle 95" class="cls-1" x="7.78" y="19.45" width="3.29" height="3.28"/><rect id="Rectangle_96" data-name="Rectangle 96" class="cls-1" x="3.89" width="3.29" height="3.29"/><rect id="Rectangle_97" data-name="Rectangle 97" class="cls-1" x="3.89" y="3.89" width="3.29" height="3.29"/><rect id="Rectangle_98" data-name="Rectangle 98" class="cls-1" x="3.89" y="7.78" width="3.29" height="3.29"/><rect id="Rectangle_99" data-name="Rectangle 99" class="cls-1" x="3.89" y="11.67" width="3.29" height="3.29"/><rect id="Rectangle_100" data-name="Rectangle 100" class="cls-1" x="3.89" y="15.56" width="3.29" height="3.29"/><rect id="Rectangle_101" data-name="Rectangle 101" class="cls-1" y="3.89" width="3.29" height="3.29"/><rect id="Rectangle_102" data-name="Rectangle 102" class="cls-1" y="7.78" width="3.29" height="3.29"/></g><g id="Pixel_it" data-name="Pixel it" class="cls-2"><g class="cls-2"><path class="cls-1" d="M60.12,12.84c0,4-2.86,6.35-7.59,6.35H48V24.7h-2.6V6.5h7.1C57.26,6.5,60.12,8.89,60.12,12.84Zm-2.6,0c0-2.6-1.74-4.08-5.07-4.08H48v8.17h4.42C55.78,16.93,57.52,15.44,57.52,12.84Z"/><path class="cls-1" d="M62.38,6.66A1.64,1.64,0,0,1,64.07,5,1.62,1.62,0,0,1,65.76,6.6a1.69,1.69,0,0,1-3.38.06Zm.44,4.26h2.5V24.7h-2.5Z"/><path class="cls-1" d="M78.35,24.7l-4-5.28-4,5.28H67.56l5.43-7-5.17-6.73H70.6l3.79,5,3.77-5h2.73l-5.2,6.73,5.49,7.05Z"/><path class="cls-1" d="M95.32,18.64H84.14a4.68,4.68,0,0,0,5,4,5.12,5.12,0,0,0,4-1.66l1.38,1.61a6.9,6.9,0,0,1-5.43,2.24c-4.45,0-7.41-2.94-7.41-7a6.75,6.75,0,0,1,6.91-7c4,0,6.82,2.86,6.82,7.1A6.67,6.67,0,0,1,95.32,18.64ZM84.14,16.85H93a4.45,4.45,0,0,0-8.84,0Z"/><path class="cls-1" d="M98.31,5.41h2.5V24.7h-2.5Z"/><path class="cls-1" d="M111.08,6.66A1.64,1.64,0,0,1,112.77,5a1.62,1.62,0,0,1,1.69,1.58,1.69,1.69,0,0,1-3.38.06Zm.44,4.26H114V24.7h-2.5Z"/><path class="cls-1" d="M126,23.89a4.68,4.68,0,0,1-3,1c-2.79,0-4.37-1.54-4.37-4.32V13h-2.34V10.92h2.34v-3h2.5v3h3.95V13h-3.95v7.47a2,2,0,0,0,2.15,2.31,3.12,3.12,0,0,0,2-.65Z"/></g></g></g></g></svg>