<svg xmlns="http://www.w3.org/2000/svg" width="87.333" height="68.252" viewBox="0 0 87.333 68.252">
  <g id="photography" transform="translate(0 -50.581)">
    <path id="Path_8" data-name="Path 8" d="M82.9,50.581H4.433A4.438,4.438,0,0,0,0,55.014V98.336H0V114.4a4.438,4.438,0,0,0,4.433,4.433H82.9a4.438,4.438,0,0,0,4.433-4.433V55.014A4.438,4.438,0,0,0,82.9,50.581ZM4.433,53.41H82.9a1.605,1.605,0,0,1,1.6,1.6V99.648H70.149L41.941,71.44a1.415,1.415,0,0,0-2,0L24.585,86.8l-5.815-5.815a1.415,1.415,0,0,0-2,0L2.829,94.921V55.014A1.605,1.605,0,0,1,4.433,53.41ZM82.9,116H4.433a1.605,1.605,0,0,1-1.6-1.6V98.922L17.77,83.982,23.584,89.8h0L30.4,96.611a1.415,1.415,0,1,0,2-2L26.585,88.8,40.94,74.441l27.622,27.622a1.414,1.414,0,0,0,1,.414H84.5V114.4A1.605,1.605,0,0,1,82.9,116Z" fill="#280a37"/>
    <path id="Path_9" data-name="Path 9" d="M324.8,136.572a6.867,6.867,0,1,0-6.867-6.867A6.874,6.874,0,0,0,324.8,136.572Zm0-10.9a4.037,4.037,0,1,1-4.037,4.037A4.042,4.042,0,0,1,324.8,125.668Z" transform="translate(-257.965 -58.628)" fill="#280a37"/>
  </g>
</svg>
