<?xml version="1.0" encoding="utf-8"?>
<!-- Generator: Adobe Illustrator 16.0.0, SVG Export Plug-In . SVG Version: 6.00 Build 0)  -->
<!DOCTYPE svg PUBLIC "-//W3C//DTD SVG 1.1//EN" "http://www.w3.org/Graphics/SVG/1.1/DTD/svg11.dtd">
<svg version="1.1" id="Layer_1" xmlns="http://www.w3.org/2000/svg" xmlns:xlink="http://www.w3.org/1999/xlink" x="0px" y="0px"
	 width="87.333px" height="68.252px" viewBox="0 0 87.333 68.252" enable-background="new 0 0 87.333 68.252" xml:space="preserve">
<g id="photography" transform="translate(0 -50.581)">
	<path id="Path_8" fill="#FFFFFF" d="M82.9,50.581H4.433C1.986,50.584,0.003,52.567,0,55.014v43.322l0,0V114.4
		c0.003,2.447,1.986,4.43,4.433,4.433H82.9c2.447-0.003,4.431-1.985,4.433-4.433V55.014C87.331,52.567,85.347,50.584,82.9,50.581z
		 M4.433,53.41H82.9c0.883,0.002,1.597,0.717,1.601,1.6v44.638H70.149L41.941,71.44c-0.552-0.552-1.447-0.552-2,0L24.585,86.8
		l-5.815-5.815c-0.552-0.552-1.448-0.552-2,0L2.829,94.921V55.014C2.83,54.128,3.547,53.411,4.433,53.41z M82.9,116H4.433
		c-0.883-0.003-1.597-0.717-1.6-1.6V98.922l14.937-14.94l5.814,5.818l0,0l6.816,6.812c0.534,0.57,1.429,0.6,2,0.066
		s0.601-1.43,0.067-2c-0.021-0.023-0.044-0.045-0.067-0.066L26.585,88.8L40.94,74.441l27.622,27.622
		c0.265,0.266,0.625,0.414,1,0.414H84.5V114.4C84.497,115.283,83.783,115.997,82.9,116z"/>
	<path id="Path_9" fill="#FFFFFF" d="M66.834,77.944c3.793,0,6.867-3.075,6.867-6.867s-3.074-6.867-6.867-6.867
		c-3.792,0-6.867,3.075-6.867,6.867C59.971,74.868,63.043,77.94,66.834,77.944z M66.834,67.044c2.23,0,4.037,1.808,4.037,4.037
		s-1.807,4.037-4.037,4.037c-2.229,0-4.037-1.808-4.037-4.037l0,0c0.002-2.23,1.808-4.038,4.037-4.041V67.044z"/>
</g>
</svg>
